<svg xmlns="http://www.w3.org/2000/svg" width="32" height="22" fill="none" viewBox="0 0 32 22">
    <rect width="31.267" height="21.589" x=".733" fill="#D9D9D9" rx="1.489"/>
    <path fill="#FF5F00" d="M19.23 15.64h-5.58V5.673h5.58v9.965Z"/>
    <path fill="#EB001B"
          d="M14.007 10.656c0-2.022.952-3.823 2.435-4.983a6.375 6.375 0 0 0-3.941-1.355c-3.522 0-6.377 2.837-6.377 6.338 0 3.5 2.855 6.338 6.377 6.338a6.375 6.375 0 0 0 3.941-1.355 6.313 6.313 0 0 1-2.435-4.983"/>
    <path fill="#F79E1B"
          d="M26.755 10.656c0 3.5-2.855 6.338-6.377 6.338a6.377 6.377 0 0 1-3.942-1.355 6.312 6.312 0 0 0 0-9.966 6.377 6.377 0 0 1 3.942-1.355c3.522 0 6.377 2.837 6.377 6.338"/>
</svg>