<svg xmlns="http://www.w3.org/2000/svg" width="32" height="22" fill="none" viewBox="0 0 32 22">
    <rect width="31.267" height="21.589" x=".733" fill="#D9D9D9" rx="1.489"/>
    <path fill="#15195A"
          d="M14.616 14.806h-2.082l1.302-7.556h2.082l-1.302 7.556ZM22.161 7.435a5.426 5.426 0 0 0-1.867-.322c-2.055 0-3.503 1.029-3.512 2.5-.017 1.085 1.037 1.688 1.825 2.05.805.37 1.079.611 1.079.94-.009.507-.651.74-1.25.74-.832 0-1.277-.12-1.954-.402l-.274-.12-.291 1.696c.488.209 1.388.394 2.322.402 2.184 0 3.606-1.013 3.623-2.58.008-.86-.548-1.52-1.748-2.059-.728-.345-1.174-.579-1.174-.932.009-.322.377-.651 1.2-.651a3.735 3.735 0 0 1 1.55.29l.188.08.283-1.632Z"/>
    <path fill="#15195A" fill-rule="evenodd"
          d="M25.888 7.25h1.61l1.68 7.556H27.25l-.248-1.133h-2.673l-.437 1.133h-2.184l3.092-6.93c.214-.49.591-.626 1.088-.626Zm-.128 2.765-.831 2.114h1.73c-.086-.377-.48-2.186-.48-2.186l-.145-.651a38.894 38.894 0 0 1-.274.723ZM3.515 7.25h3.349c.454.016.822.152.942.635l.728 3.473v-.002.002l.223 1.045 2.038-5.153h2.201l-3.272 7.548h-2.2L5.667 8.232a8.81 8.81 0 0 0-2.188-.83l.035-.152Z"
          clip-rule="evenodd"/>
</svg>